#!Matlab matrix to amc conversion
:FULLY-SPECIFIED
:DEGREES
58
root 0.350357 1.024086 26.250264 7.215642 4.393449 -3.102204
lowerback -3.577341 -2.659957 -0.822448
upperback -0.816175 -3.620525 5.079067
thorax 1.464391 -1.834805 5.527670
lowerneck -21.456850 -3.213671 -12.877515
upperneck 12.414684 -2.412013 10.983607
head 7.532532 -0.729258 5.445688
rclavicle 0.000000 -0.000000
rhumerus -40.346629 5.872501 -71.189494
rradius 21.506244
rwrist -11.445280
rhand -28.856200 -18.800500
rfingers 7.125020
rthumb -2.212790 -48.768800
lclavicle 0.000000 -0.000000
lhumerus -28.416545 -17.927314 88.401808
lradius 38.017483
lwrist 8.124850
lhand -19.668800 -28.799300
lfingers 7.125020
lthumb 6.659510 1.076010
rfemur -27.007528 1.191133 28.136243
rtibia 36.347417
rfoot -16.658790 0.792290
rtoes -20.766800
lfemur -16.994281 9.248532 -13.183755
ltibia 73.195195
lfoot -5.770446 12.126277
ltoes -22.051700
59
root 0.380899 1.127538 26.744299 7.056323 3.942624 -3.250638
lowerback -3.698641 -2.519447 -0.722651
upperback -0.580640 -3.452480 5.105388
thorax 1.766060 -1.754047 5.487038
lowerneck -21.931175 -3.102553 -12.677108
upperneck 12.905186 -2.212802 10.749642
head 7.759029 -0.655727 5.375765
rclavicle -0.000000 0.000000
rhumerus -38.870151 4.599456 -70.243356
rradius 20.706536
rwrist -8.858085
rhand -28.856200 -18.800500
rfingers 7.125020
rthumb -2.212790 -48.768800
lclavicle -0.000000 0.000000
lhumerus -29.151220 -19.001520 89.268379
lradius 36.297685
lwrist 7.242398
lhand -19.668800 -28.799300
lfingers 7.125020
lthumb 6.659510 1.076010
rfemur -25.651247 1.849455 28.116935
rtibia 35.710925
rfoot -17.008324 0.720760
rtoes -20.766800
lfemur -18.882679 9.545759 -13.797635
ltibia 74.518839
lfoot -5.864874 12.349485
ltoes -22.051700
60
root 0.413109 1.214680 27.225692 6.891755 3.388943 -3.387849
lowerback -3.804789 -2.378607 -0.582868
upperback -0.387818 -3.282246 5.096551
thorax 2.010647 -1.671730 5.391121
lowerneck -22.283432 -2.844144 -12.280304
upperneck 13.557994 -1.834170 10.243566
head 7.994410 -0.520299 5.202604
rclavicle -0.000000 0.000000
rhumerus -37.922264 1.671798 -68.097830
rradius 19.305499
rwrist -4.102076
rhand -28.856200 -18.800500
rfingers 7.125020
rthumb -2.212790 -48.768800
lclavicle -0.000000 0.000000
lhumerus -29.858044 -19.973605 89.926391
lradius 35.037608
lwrist 6.627400
lhand -19.668800 -28.799300
lfingers 7.125020
lthumb 6.659510 1.076010
rfemur -24.532593 2.454110 28.068618
rtibia 35.396158
rfoot -17.498773 0.851326
rtoes -20.766800
lfemur -20.344372 10.085332 -14.329815
ltibia 75.535704
lfoot -5.178041 14.121306
ltoes -22.051700
61
root 0.440326 1.285802 27.684446 6.723824 2.816797 -3.485102
lowerback -3.755456 -2.228444 -0.521346
upperback -0.269040 -3.084705 5.042202
thorax 2.092660 -1.575469 5.308731
lowerneck -22.572224 -2.545986 -11.806071
upperneck 14.633135 -1.431887 9.598240
head 8.368284 -0.388134 4.983705
rclavicle -0.000000 0.000000
rhumerus -37.395508 -3.144819 -64.715781
rradius 17.350475
rwrist 3.244831
rhand -28.856200 -18.800500
rfingers 7.125020
rthumb -2.212790 -48.768800
lclavicle -0.000000 0.000000
lhumerus -30.439775 -21.217890 90.517141
lradius 34.252578
lwrist 6.136884
lhand -19.668800 -28.799300
lfingers 7.125020
lthumb 6.659510 1.076010
rfemur -23.469920 3.033231 27.949775
rtibia 35.137417
rfoot -17.967438 1.070633
rtoes -20.766800
lfemur -21.729212 10.901275 -14.909628
ltibia 76.500015
lfoot -5.400969 16.635166
ltoes -22.051700
62
root 0.460213 1.342612 28.120907 6.522782 2.325369 -3.554524
lowerback -3.484951 -2.054696 -0.643534
upperback -0.233251 -2.834173 4.946538
thorax 1.964883 -1.451989 5.311533
lowerneck -23.034487 -2.350393 -11.401676
upperneck 16.446654 -1.236633 9.172777
head 9.072442 -0.331424 4.854669
rclavicle 0.000000 0.000000
rhumerus -36.478740 -8.319037 -61.508625
rradius 15.303108
rwrist 11.023865
rhand -28.856200 -18.800500
rfingers 7.125020
rthumb -2.212790 -48.768800
lclavicle 0.000000 0.000000
lhumerus -30.902005 -22.885845 91.266342
lradius 33.550817
lwrist 5.783889
lhand -19.668800 -28.799300
lfingers 7.125020
lthumb 6.659510 1.076010
rfemur -22.143509 3.603267 27.666746
rtibia 34.636672
rfoot -18.428599 1.087600
rtoes -20.766800
lfemur -23.397909 11.862643 -15.794916
ltibia 77.355466
lfoot -7.412527 18.410879
ltoes -22.051700
63
root 0.472922 1.381392 28.537815 6.476222 1.742034 -3.560900
lowerback -3.229694 -1.629693 -0.824015
upperback -0.209905 -2.244824 4.740551
thorax 1.798021 -1.157053 5.254335
lowerneck -23.534933 -2.460029 -11.283556
upperneck 17.926376 -1.512579 9.363204
head 9.728719 -0.429271 4.918593
rclavicle 0.000000 -0.000000
rhumerus -34.652709 -9.391567 -61.916164
rradius 14.793108
rwrist 13.345429
rhand -28.856200 -18.800500
rfingers 7.125020
rthumb -2.212790 -48.768800
lclavicle 0.000000 -0.000000
lhumerus -31.882838 -24.037758 91.907139
lradius 32.356304
lwrist 5.345015
lhand -19.668800 -28.799300
lfingers 7.125020
lthumb 6.659510 1.076010
rfemur -20.411959 4.278581 27.449638
rtibia 33.945452
rfoot -19.175617 0.689558
rtoes -20.766800
lfemur -26.236200 12.693668 -16.949835
ltibia 77.657770
lfoot -10.645092 18.412841
ltoes -22.051700
64
root 0.483731 1.395403 28.941137 6.802745 0.571531 -3.722530
lowerback -3.210793 -0.689267 -0.281228
upperback -0.181778 -1.010858 4.396574
thorax 1.700380 -0.533746 4.654972
lowerneck -23.404931 -2.908503 -11.700468
upperneck 16.838553 -2.133055 10.058834
head 9.394150 -0.649229 5.117607
rclavicle -0.000000 -0.000000
rhumerus -32.402110 -2.476156 -67.484657
rradius 17.421640
rwrist 7.147151
rhand -28.856200 -18.800500
rfingers 7.125020
rthumb -2.212790 -48.768800
lclavicle -0.000000 -0.000000
lhumerus -34.716242 -23.139328 91.745615
lradius 30.624417
lwrist 3.853157
lhand -19.668800 -28.799300
lfingers 7.125020
lthumb 6.659510 1.076010
rfemur -18.055679 4.947610 28.101465
rtibia 33.001480
rfoot -20.345212 0.366501
rtoes -20.766800
lfemur -31.526265 13.123019 -17.770346
ltibia 76.451684
lfoot -13.544569 16.655287
ltoes -22.051700
